PathFileType	4	(X/Y/Z)	C:/Users/opensim2020/Desktop/walking_exp_matlab/subject01_walking14_straight_04.trc																																																																																																																												
DataRate	CameraRate	NumFrames	NumMarkers	Units	OrigDataRate	OrigDataStartFrame	OrigNumFrames																																																																																																																								
100	100	4	42	mm	100	2085	89																																																																																																																								
Frame#	Time	LFHD			RFHD			LBHD			RBHD			C7			T10			CLAV			STRN			RBAK			LSHO			LUPA			LELB			LFRM			LWRA			LWRB			LFIN			RSHO			RUPA			RELB			RFRM			RWRA			RWRB			RFIN			LASI			RASI			LPSI			RPSI			LTHI			LKNE			LTIB			LANK			LHEE			LTOE			RTHI			RKNE			RTIB			RANK			RHEE			RTOE			*39			*40			*41		
		X1	Y1	Z1	X2	Y2	Z2	X3	Y3	Z3	X4	Y4	Z4	X5	Y5	Z5	X6	Y6	Z6	X7	Y7	Z7	X8	Y8	Z8	X9	Y9	Z9	X10	Y10	Z10	X11	Y11	Z11	X12	Y12	Z12	X13	Y13	Z13	X14	Y14	Z14	X15	Y15	Z15	X16	Y16	Z16	X17	Y17	Z17	X18	Y18	Z18	X19	Y19	Z19	X20	Y20	Z20	X21	Y21	Z21	X22	Y22	Z22	X23	Y23	Z23	X24	Y24	Z24	X25	Y25	Z25	X26	Y26	Z26	X27	Y27	Z27	X28	Y28	Z28	X29	Y29	Z29	X30	Y30	Z30	X31	Y31	Z31	X32	Y32	Z32	X33	Y33	Z33	X34	Y34	Z34	X35	Y35	Z35	X36	Y36	Z36	X37	Y37	Z37	X38	Y38	Z38	X39	Y39	Z39	X40	Y40	Z40	X41	Y41	Z41	X42	Y42	Z42
																																																																																																																															
12	0.11	-502.59067	1644.62402	1019.89453	-460.40244	1650.58325	1126.80505	-615.8374	1613.83008	1059.80725	-575.37506	1619.83545	1173.62268	-661.7934	1418.45239	1079.75732	-709.73816	1125.06042	1089.92505	-519.64917	1345.76099	1103.64758	-484.62024	1189.6875	1107.2948	-732.79938	1228.1355	1146.83044	-555.02716	1383.37634	938.25183	-558.01593	1207.5033	841.68768	-548.17883	1055.07275	822.94214	-440.58658	1002.82751	833.20294	-316.5296	989.75317	889.39459	-338.91687	942.42694	861.97931	-255.70958	940.09283	869.67096	-608.06635	1390.2948	1239.07031	-724.4021	1211.3136	1322.48486	-741.63495	1092.06677	1337.02136	-765.26355	980.89703	1377.95032	-737.86438	839.69574	1380.84265	-782.83667	862.33228	1409.88123	-780.05817	775.79956	1422.96936	-535.18481	918.23022	992.2251	-534.01062	923.87506	1209.83472	-720.09534	930.76959	1052.9635	-717.74548	929.2608	1197.18237	-637.03857	589.02386	945.84937	-687.16467	460.10352	962.29431	-817.03027	318.15463	953.2215	-949.76825	139.92157	1003.72302	-1004.79858	142.9776	1051.60095	-844.40796	38.16572	1025.62598	-503.32751	601.86633	1278.37183	-445.63931	456.63104	1257.72156	-454.14105	280.25961	1265.80994	-408.98654	76.83546	1231.3689	-445.58054	32.6766	1179.12061	-264.79498	60.6986	1240.43872	-473.57898	1684.68945	1105.6062	-1973.0929	1023.64673	3102.00781	-2012.5481	1022.06335	3140.61353
13	0.12	-490.20526	1645.29431	1023.56744	-447.50906	1651.13232	1130.11206	-603.29272	1614.06934	1064.03113	-562.09393	1619.89661	1177.65503	-649.38007	1418.2782	1084.18677	-695.4317	1124.79871	1093.00659	-506.52289	1345.93713	1107.02368	-470.65851	1190.33301	1109.98669	-718.79327	1226.8783	1150.6864	-542.84186	1383.84985	941.85339	-546.79846	1208.32751	844.48022	-537.42218	1055.91943	824.82849	-430.20523	1002.64746	834.42188	-306.1608	988.02307	890.32709	-329.05344	941.01288	862.23181	-245.7186	938.01801	870.15686	-594.47076	1389.729	1243.33252	-708.71283	1209.27368	1326.74097	-725.17224	1090.03003	1340.64026	-748.65851	978.97253	1381.46423	-721.40369	837.70807	1384.27197	-766.2699	860.47662	1413.52478	-763.58112	774.15619	1426.61438	-520.13226	917.56732	994.56915	-518.77893	923.98352	1212.09778	-705.33685	929.65173	1054.8324	-702.52869	928.08691	1199.745	-620.63525	587.89722	946.96686	-671.06665	458.98068	962.61975	-804.71906	320.95508	953.05853	-942.29041	146.18069	1001.89105	-996.12311	152.17407	1050.07129	-843.41595	38.25617	1025.51208	-489.26614	602.27832	1280.83997	-430.72525	456.67715	1258.43164	-441.87854	282.11002	1265.78345	-404.09512	76.85016	1232.13098	-443.31036	34.3331	1179.90515	-261.1004	55.32378	1240.27686	-461.0553	1685.03027	1109.3606	-1973.12207	1023.57288	3101.97681	-2012.55945	1022.12677	3140.74219
14	0.13	-477.55865	1646.61548	1027.38916	-434.41974	1652.26794	1133.28992	-590.22192	1615.02576	1068.34082	-548.54169	1620.91846	1181.78711	-636.38293	1418.9679	1088.87927	-681.05298	1125.28284	1095.72815	-492.522	1347.5105	1110.14819	-456.9259	1191.44385	1112.74719	-704.86322	1226.71484	1154.56995	-530.73969	1384.87195	945.19183	-535.9574	1209.56226	847.36963	-526.87878	1057.08618	827.10187	-420.39001	1002.3465	835.69366	-296.34717	985.6748	891.05151	-319.87381	939.27264	862.42786	-236.52043	935.20056	870.21887	-580.82458	1389.29517	1247.05664	-692.63922	1207.4801	1331.20154	-708.2226	1088.11816	1344.29285	-731.38477	977.00653	1384.9303	-703.96234	835.7948	1387.50818	-748.66858	858.4101	1416.62537	-746.04858	772.71497	1430.21265	-505.29755	917.41003	997.06177	-503.47998	924.46948	1214.41284	-690.69666	928.80176	1056.31653	-687.32294	927.71997	1201.91077	-603.85669	587.28247	948.22223	-653.76331	458.25217	962.79285	-791.32562	324.52557	952.57178	-932.75342	152.86868	1000.41888	-985.26062	162.0159	1048.48914	-842.30396	38.30333	1025.46057	-477.51938	602.52197	1283.97363	-415.27444	458.79724	1259.01733	-428.3082	284.54514	1269.35974	-401.14984	77.03177	1233.10791	-442.14944	35.47617	1180.68115	-258.91074	49.66448	1239.94019	-448.33521	1686.15759	1113.16821	-1972.96228	1024.09753	3102.14111	-2012.47363	1022.11047	3140.73706
15	0.14	-464.70486	1647.9032	1031.09119	-420.89618	1653.44946	1136.71143	-577.09021	1616.56921	1072.67175	-534.70508	1622.18701	1185.68848	-622.65588	1420.29492	1093.26819	-666.80371	1125.95007	1098.36609	-478.97964	1349.14307	1113.4823	-443.18436	1192.88757	1115.47485	-691.17535	1227.46008	1158.6051	-518.48792	1386.26147	948.54901	-524.65619	1211.22729	850.52374	-516.65393	1058.55713	829.59503	-411.04532	1001.94922	837.0213	-287.19608	982.82471	891.64374	-311.51089	937.12628	862.63831	-228.40875	931.55255	870.15289	-567.25073	1389.34644	1250.8175	-676.2243	1206.07971	1335.67627	-690.8349	1086.43396	1347.65063	-713.44177	975.29681	1388.24792	-685.42688	834.16431	1390.57617	-730.20233	856.72552	1420.04724	-727.29871	771.25751	1433.66345	-490.93106	917.61151	999.47119	-488.25778	925.37744	1216.45557	-676.11316	928.33032	1057.42053	-672.48944	928.42023	1203.60632	-586.58124	587.19641	949.34857	-634.82654	457.858	962.50708	-775.91974	328.6041	952.06708	-921.54956	160.16144	998.922	-972.05872	172.20099	1047.48706	-840.64679	38.41427	1025.7124	-466.44046	602.58002	1285.05371	-401.04617	460.42889	1259.64673	-416.27548	286.18311	1272.15918	-398.98795	77.3533	1233.59937	-441.21854	36.20853	1181.59839	-257.35919	45.10419	1239.46387	-435.2081	1687.67615	1116.57214	-1973.10559	1023.39404	3101.96826	-2012.54297	1021.95947	3140.6521
